<svg width="49" height="46" viewBox="0 0 49 46" fill="none" xmlns="http://www.w3.org/2000/svg">
<path d="M2.68057 0.0791016C2.22954 0.0791016 1.79699 0.264858 1.47807 0.595507C1.15915 0.926156 0.97998 1.37461 0.97998 1.84222C0.97998 2.30983 1.15915 2.75829 1.47807 3.08893C1.79699 3.41958 2.22954 3.60534 2.68057 3.60534H5.82326C6.20872 3.60534 6.54431 3.87333 6.64407 4.25887L12.4442 26.808C10.6225 27.3001 9.00962 28.4048 7.85828 29.949C6.70694 31.4932 6.08214 33.3897 6.08175 35.3415C6.08175 36.3147 6.84361 37.1046 7.78234 37.1046H43.4947C43.9457 37.1046 44.3783 36.9188 44.6972 36.5882C45.0161 36.2575 45.1953 35.8091 45.1953 35.3415C45.1953 34.8739 45.0161 34.4254 44.6972 34.0948C44.3783 33.7641 43.9457 33.5784 43.4947 33.5784H9.77316C10.1249 32.5469 10.7765 31.6538 11.6383 31.0223C12.5 30.3907 13.5294 30.0518 14.5847 30.0521H40.021C40.3395 30.0521 40.6517 29.9594 40.9219 29.7844C41.1921 29.6094 41.4095 29.3592 41.5492 29.0624C44.1379 23.5547 46.3798 17.8789 48.2609 12.0707C48.3352 11.8409 48.363 11.5977 48.3426 11.3563C48.3222 11.1149 48.2541 10.8804 48.1424 10.6675C48.0306 10.4546 47.8778 10.2679 47.6934 10.119C47.509 9.97013 47.2969 9.86224 47.0705 9.80212C35.1115 6.64061 22.7975 5.15654 10.4579 5.38962L9.93188 3.35145C9.69053 2.41286 9.15689 1.58322 8.4139 0.991453C7.67091 0.39969 6.76018 0.0789575 5.82326 0.0791016H2.68057ZM6.08175 42.394C6.08175 41.4587 6.44008 40.5618 7.07793 39.9005C7.71577 39.2392 8.58088 38.8677 9.48292 38.8677C10.385 38.8677 11.2501 39.2392 11.8879 39.9005C12.5258 40.5618 12.8841 41.4587 12.8841 42.394C12.8841 43.3292 12.5258 44.2261 11.8879 44.8874C11.2501 45.5487 10.385 45.9202 9.48292 45.9202C8.58088 45.9202 7.71577 45.5487 7.07793 44.8874C6.44008 44.2261 6.08175 43.3292 6.08175 42.394ZM34.9918 42.394C34.9918 41.4587 35.3501 40.5618 35.9879 39.9005C36.6258 39.2392 37.4909 38.8677 38.3929 38.8677C39.295 38.8677 40.1601 39.2392 40.7979 39.9005C41.4358 40.5618 41.7941 41.4587 41.7941 42.394C41.7941 43.3292 41.4358 44.2261 40.7979 44.8874C40.1601 45.5487 39.295 45.9202 38.3929 45.9202C37.4909 45.9202 36.6258 45.5487 35.9879 44.8874C35.3501 44.2261 34.9918 43.3292 34.9918 42.394Z" fill="#52C992"/>
</svg>
