<svg width="47" height="42" viewBox="0 0 47 42" fill="none" xmlns="http://www.w3.org/2000/svg">
<path d="M23.9005 10.3299C22.5979 10.3299 21.3486 10.8545 20.4275 11.7883C19.5064 12.7222 18.989 13.9887 18.989 15.3093C18.989 16.6299 19.5064 17.8965 20.4275 18.8303C21.3486 19.7641 22.5979 20.2887 23.9005 20.2887C25.2032 20.2887 26.4524 19.7641 27.3735 18.8303C28.2946 17.8965 28.8121 16.6299 28.8121 15.3093C28.8121 13.9887 28.2946 12.7222 27.3735 11.7883C26.4524 10.8545 25.2032 10.3299 23.9005 10.3299Z" fill="#F18D54"/>
<path fill-rule="evenodd" clip-rule="evenodd" d="M0.97998 4.5206C0.97998 2.22786 2.81362 0.371094 5.07294 0.371094H42.7281C44.9874 0.371094 46.8211 2.23007 46.8211 4.5206V26.098C46.8211 28.3907 44.9874 30.2475 42.7281 30.2475H5.07294C4.53544 30.2475 4.00321 30.1402 3.50663 29.9317C3.01005 29.7231 2.55885 29.4175 2.17878 29.0322C1.79871 28.6468 1.49723 28.1894 1.29154 27.686C1.08585 27.1825 0.97998 26.6429 0.97998 26.098V4.5206ZM15.7146 15.3093C15.7146 13.1083 16.5771 10.9974 18.1122 9.44102C19.6474 7.88465 21.7295 7.0103 23.9005 7.0103C26.0716 7.0103 28.1537 7.88465 29.6888 9.44102C31.224 10.9974 32.0864 13.1083 32.0864 15.3093C32.0864 17.5103 31.224 19.6212 29.6888 21.1776C28.1537 22.734 26.0716 23.6083 23.9005 23.6083C21.7295 23.6083 19.6474 22.734 18.1122 21.1776C16.5771 19.6212 15.7146 17.5103 15.7146 15.3093ZM38.6352 13.6495C38.201 13.6495 37.7845 13.8244 37.4775 14.1356C37.1705 14.4469 36.998 14.8691 36.998 15.3093V15.327C36.998 16.2432 37.7314 16.9868 38.6352 16.9868H38.6526C39.0868 16.9868 39.5033 16.8119 39.8103 16.5007C40.1173 16.1894 40.2898 15.7672 40.2898 15.327V15.3093C40.2898 14.8691 40.1173 14.4469 39.8103 14.1356C39.5033 13.8244 39.0868 13.6495 38.6526 13.6495H38.6352ZM7.52871 15.3093C7.52871 14.8691 7.7012 14.4469 8.00823 14.1356C8.31526 13.8244 8.73168 13.6495 9.16589 13.6495H9.18335C9.61756 13.6495 10.034 13.8244 10.341 14.1356C10.648 14.4469 10.8205 14.8691 10.8205 15.3093V15.327C10.8205 15.7672 10.648 16.1894 10.341 16.5007C10.034 16.8119 9.61756 16.9868 9.18335 16.9868H9.16589C8.73168 16.9868 8.31526 16.8119 8.00823 16.5007C7.7012 16.1894 7.52871 15.7672 7.52871 15.327V15.3093Z" fill="#F18D54"/>
<path d="M2.61716 33.5671C2.18295 33.5671 1.76653 33.742 1.4595 34.0533C1.15247 34.3645 0.97998 34.7867 0.97998 35.2269C0.97998 35.6671 1.15247 36.0893 1.4595 36.4006C1.76653 36.7118 2.18295 36.8867 2.61716 36.8867C14.4049 36.8867 25.8215 38.4846 36.6706 41.4788C39.2682 42.1959 41.9095 40.2439 41.9095 37.451V35.2269C41.9095 34.7867 41.737 34.3645 41.43 34.0533C41.123 33.742 40.7066 33.5671 40.2724 33.5671H2.61716Z" fill="#F18D54"/>
</svg>
