<svg width="299" height="247" viewBox="0 0 299 247" fill="none" xmlns="http://www.w3.org/2000/svg">
<path d="M88 246.189V234.187H90.669V246.189H88ZM90.057 246.189V243.843H95.99V246.189H90.057Z" fill="#CFCFCF"/>
<path d="M97.5293 246.189V234.187H100.198V246.189H97.5293ZM99.5693 246.189V243.877H106.148V246.189H99.5693ZM99.5693 241.174V238.947H105.553V241.174H99.5693ZM99.5693 236.482V234.187H106.063V236.482H99.5693Z" fill="#CFCFCF"/>
<path d="M113.266 241.82V239.746H115.85C116.178 239.746 116.479 239.678 116.751 239.542C117.023 239.406 117.238 239.208 117.397 238.947C117.555 238.686 117.635 238.369 117.635 237.995C117.635 237.632 117.555 237.321 117.397 237.06C117.238 236.799 117.023 236.601 116.751 236.465C116.479 236.329 116.178 236.261 115.85 236.261H113.266V234.187H116.241C117 234.187 117.686 234.34 118.298 234.646C118.91 234.952 119.391 235.394 119.743 235.972C120.105 236.539 120.287 237.213 120.287 237.995C120.287 238.777 120.105 239.457 119.743 240.035C119.391 240.602 118.91 241.044 118.298 241.361C117.686 241.667 117 241.82 116.241 241.82H113.266ZM111.226 246.189V234.187H113.895V246.189H111.226Z" fill="#CFCFCF"/>
<path d="M120.053 246.189L124.813 234.187H127.227L131.936 246.189H129.114L125.51 236.227H126.479L122.824 246.189H120.053ZM122.756 244.013V241.837H129.301V244.013H122.756Z" fill="#CFCFCF"/>
<path d="M133.206 246.189V234.187H135.076L135.875 236.584V246.189H133.206ZM141.485 246.189L134.413 237.128L135.076 234.187L142.148 243.248L141.485 246.189ZM141.485 246.189L140.771 243.792V234.187H143.44V246.189H141.485Z" fill="#CFCFCF"/>
<path d="M145.757 246.189V234.187H148.426V246.189H145.757Z" fill="#CFCFCF"/>
<path d="M150.737 246.189V234.187H153.406V246.189H150.737ZM152.777 246.189V243.877H159.356V246.189H152.777ZM152.777 241.174V238.947H158.761V241.174H152.777ZM152.777 236.482V234.187H159.271V236.482H152.777Z" fill="#CFCFCF"/>
<path d="M163.236 241.242V239.27H165.769C166.302 239.27 166.71 239.134 166.993 238.862C167.288 238.59 167.435 238.222 167.435 237.757C167.435 237.326 167.294 236.969 167.01 236.686C166.727 236.403 166.319 236.261 165.786 236.261H163.236V234.187H166.092C166.886 234.187 167.583 234.34 168.183 234.646C168.784 234.941 169.254 235.354 169.594 235.887C169.934 236.42 170.104 237.032 170.104 237.723C170.104 238.426 169.934 239.043 169.594 239.576C169.254 240.097 168.778 240.505 168.166 240.8C167.554 241.095 166.835 241.242 166.007 241.242H163.236ZM161.196 246.189V234.187H163.865V246.189H161.196ZM167.724 246.189L163.984 241.021L166.432 240.358L170.886 246.189H167.724Z" fill="#CFCFCF"/>
<path d="M175.523 246.189V234.187H178.192V246.189H175.523ZM177.563 246.189V243.877H184.142V246.189H177.563ZM177.563 241.174V238.947H183.547V241.174H177.563ZM177.563 236.482V234.187H184.057V236.482H177.563Z" fill="#CFCFCF"/>
<path d="M189.288 246.376C188.302 246.376 187.452 246.217 186.738 245.9C186.035 245.571 185.389 245.078 184.8 244.421L186.534 242.704C186.919 243.146 187.344 243.492 187.809 243.741C188.285 243.979 188.834 244.098 189.458 244.098C190.024 244.098 190.461 243.996 190.767 243.792C191.084 243.588 191.243 243.305 191.243 242.942C191.243 242.613 191.141 242.347 190.937 242.143C190.733 241.939 190.461 241.763 190.121 241.616C189.792 241.469 189.424 241.327 189.016 241.191C188.619 241.055 188.222 240.902 187.826 240.732C187.429 240.551 187.061 240.33 186.721 240.069C186.392 239.797 186.126 239.463 185.922 239.066C185.718 238.658 185.616 238.148 185.616 237.536C185.616 236.799 185.791 236.165 186.143 235.632C186.505 235.099 187.004 234.697 187.639 234.425C188.273 234.142 189.004 234 189.832 234C190.67 234 191.435 234.147 192.127 234.442C192.829 234.737 193.407 235.139 193.861 235.649L192.127 237.366C191.764 236.992 191.396 236.714 191.022 236.533C190.659 236.352 190.245 236.261 189.781 236.261C189.316 236.261 188.948 236.352 188.676 236.533C188.404 236.703 188.268 236.952 188.268 237.281C188.268 237.587 188.37 237.836 188.574 238.029C188.778 238.21 189.044 238.369 189.373 238.505C189.713 238.641 190.081 238.777 190.478 238.913C190.886 239.049 191.288 239.208 191.685 239.389C192.081 239.57 192.444 239.803 192.773 240.086C193.113 240.358 193.385 240.709 193.589 241.14C193.793 241.559 193.895 242.081 193.895 242.704C193.895 243.849 193.487 244.75 192.671 245.407C191.855 246.053 190.727 246.376 189.288 246.376Z" fill="#CFCFCF"/>
<path d="M198.087 246.189V234.357H200.756V246.189H198.087ZM194.33 236.516V234.187H204.513V236.516H194.33Z" fill="#CFCFCF"/>
<path d="M212.716 246.189L208.092 234.187H210.948L214.467 243.894H213.294L216.864 234.187H219.686L215.011 246.189H212.716Z" fill="#CFCFCF"/>
<path d="M221.095 246.189V234.187H223.764V246.189H221.095Z" fill="#CFCFCF"/>
<path d="M227.877 246.189V243.843H230.852C231.578 243.843 232.212 243.701 232.756 243.418C233.3 243.123 233.72 242.698 234.014 242.143C234.309 241.588 234.456 240.93 234.456 240.171C234.456 239.412 234.303 238.76 233.997 238.216C233.703 237.672 233.283 237.253 232.739 236.958C232.207 236.663 231.578 236.516 230.852 236.516H227.792V234.187H230.886C231.793 234.187 232.626 234.334 233.385 234.629C234.156 234.912 234.825 235.326 235.391 235.87C235.969 236.403 236.411 237.037 236.717 237.774C237.035 238.499 237.193 239.304 237.193 240.188C237.193 241.061 237.035 241.865 236.717 242.602C236.411 243.339 235.975 243.973 235.408 244.506C234.842 245.039 234.173 245.452 233.402 245.747C232.643 246.042 231.816 246.189 230.92 246.189H227.877ZM226.075 246.189V234.187H228.744V246.189H226.075Z" fill="#CFCFCF"/>
<path d="M238.892 246.189V234.187H241.561V246.189H238.892ZM240.932 246.189V243.877H247.511V246.189H240.932ZM240.932 241.174V238.947H246.916V241.174H240.932ZM240.932 236.482V234.187H247.426V236.482H240.932Z" fill="#CFCFCF"/>
<path d="M225.51 28.8859C227.175 28.8718 228.827 29.1936 230.365 29.832C231.903 30.4705 233.297 31.4125 234.462 32.6017C235.628 33.7909 236.543 35.203 237.15 36.7535C237.758 38.304 238.047 39.9612 238 41.6259C238.018 43.2912 237.701 44.9431 237.067 46.4832C236.433 48.0232 235.495 49.4199 234.31 50.59C233.125 51.7601 231.717 52.6798 230.169 53.2941C228.621 53.9085 226.965 54.205 225.3 54.1659C223.64 54.1522 221.999 53.8116 220.471 53.1636C218.943 52.5156 217.557 51.573 216.393 50.3895C215.229 49.206 214.31 47.8049 213.687 46.2661C213.065 44.7272 212.751 43.0809 212.765 41.4209C212.779 39.761 213.119 38.1201 213.767 36.5918C214.415 35.0635 215.358 33.6778 216.541 32.5139C217.725 31.3499 219.126 30.4304 220.665 29.8079C222.204 29.1854 223.85 28.8722 225.51 28.8859ZM225.42 31.1459C219.76 31.1459 214.77 36.0359 214.84 41.4959C214.973 44.2503 216.126 46.8567 218.074 48.8084C220.022 50.7601 222.626 51.9177 225.38 52.0559C230.89 52.1159 235.67 47.2359 235.69 41.5159C235.741 40.1489 235.511 38.7859 235.015 37.5112C234.518 36.2366 233.765 35.0774 232.802 34.1054C231.84 33.1334 230.688 32.3692 229.418 31.8602C228.148 31.3511 226.788 31.1081 225.42 31.1459Z" fill="#807D7D"/>
<path d="M46.66 73.5859C45.3285 74.7017 43.7169 75.4314 42 75.6959C40.8875 75.9415 39.8727 76.5116 39.0842 77.3339C38.2957 78.1563 37.7687 79.1941 37.57 80.3159C37.04 83.3159 36.29 86.7159 35.64 89.2059C33.32 77.4659 33.32 77.4659 25 73.9959C31.66 73.7459 35.46 70.8159 35.35 63.5759C36.75 69.6059 38.48 74.8759 46.66 73.5859Z" fill="#F3D283"/>
<path d="M244.77 206.296L228.21 204.896L237.82 191.326L244.77 206.296ZM232.25 203.006L241.16 203.946C239.83 200.946 238.82 198.626 237.48 195.596L232.25 203.006Z" fill="#F05170"/>
<path d="M273.08 127.576C270.34 128.036 268.19 128.046 266.32 128.786C262.74 130.206 261.09 128.696 259.96 126.546C262.81 125.956 265.16 125.546 267.46 124.956C270.53 124.146 272.32 125.206 273.08 127.576Z" fill="#79C57F"/>
<path d="M225.42 31.1459C226.788 31.108 228.148 31.3511 229.418 31.8602C230.688 32.3692 231.84 33.1334 232.802 34.1054C233.765 35.0774 234.518 36.2366 235.015 37.5112C235.511 38.7859 235.741 40.1489 235.69 41.5159C235.69 47.2359 230.89 52.1159 225.38 52.0559C222.626 51.9177 220.022 50.7601 218.074 48.8084C216.126 46.8567 214.973 44.2503 214.84 41.4959C214.77 36.0359 219.76 31.1559 225.42 31.1459Z" fill="#E8E7E7"/>
<path d="M190.11 27.306C190.571 27.2946 191.03 27.3781 191.458 27.5512C191.885 27.7244 192.273 27.9835 192.596 28.3126C192.92 28.6417 193.172 29.0337 193.338 29.4643C193.504 29.8949 193.579 30.3549 193.56 30.816C193.555 31.7386 193.191 32.6231 192.545 33.2821C191.899 33.941 191.022 34.3226 190.1 34.346C189.178 34.3002 188.305 33.9139 187.651 33.2618C186.997 32.6097 186.608 31.7382 186.56 30.816C186.583 29.8854 186.966 29.0001 187.628 28.3457C188.29 27.6912 189.179 27.3186 190.11 27.306Z" stroke="#2BB673" stroke-width="2" stroke-miterlimit="10"/>
<path d="M232.25 203.006L237.48 195.596C238.82 198.596 239.83 200.936 241.16 203.946L232.25 203.006Z" fill="#F3F2F2"/>
<path d="M137.25 211.146C145.766 211.146 152.67 204.242 152.67 195.726C152.67 187.21 145.766 180.306 137.25 180.306C128.734 180.306 121.83 187.21 121.83 195.726C121.83 204.242 128.734 211.146 137.25 211.146Z" fill="white" stroke="#807D7D" stroke-width="3" stroke-miterlimit="10"/>
<path d="M137.25 201.696C140.547 201.696 143.22 199.023 143.22 195.726C143.22 192.429 140.547 189.756 137.25 189.756C133.953 189.756 131.28 192.429 131.28 195.726C131.28 199.023 133.953 201.696 137.25 201.696Z" fill="white" stroke="#807D7D" stroke-width="2" stroke-miterlimit="10"/>
<path d="M189.64 211.146C198.156 211.146 205.06 204.242 205.06 195.726C205.06 187.21 198.156 180.306 189.64 180.306C181.124 180.306 174.22 187.21 174.22 195.726C174.22 204.242 181.124 211.146 189.64 211.146Z" fill="white" stroke="#807D7D" stroke-width="3" stroke-miterlimit="10"/>
<path d="M189.64 201.696C192.937 201.696 195.61 199.023 195.61 195.726C195.61 192.429 192.937 189.756 189.64 189.756C186.343 189.756 183.67 192.429 183.67 195.726C183.67 199.023 186.343 201.696 189.64 201.696Z" fill="white" stroke="#807D7D" stroke-width="2" stroke-miterlimit="10"/>
<path d="M105.252 2.35576L98.2958 3.61989C97.2145 3.8164 96.4972 4.8523 96.6937 5.93364L97.9578 12.8897C98.1544 13.971 99.1903 14.6883 100.272 14.4918L107.228 13.2277C108.309 13.0312 109.026 11.9953 108.83 10.9139L107.566 3.95787C107.369 2.87654 106.333 2.15925 105.252 2.35576Z" stroke="#67B7E6" stroke-width="3" stroke-miterlimit="10"/>
<path d="M136.85 109.966L198.19 109.966C200.504 109.966 202.38 108.09 202.38 105.776V105.766C202.38 103.452 200.504 101.576 198.19 101.576L136.85 101.576C134.536 101.576 132.66 103.452 132.66 105.766V105.776C132.66 108.09 134.536 109.966 136.85 109.966Z" fill="white" stroke="#807D7D" stroke-width="2" stroke-miterlimit="10"/>
<path d="M136.85 129.166H198.19C200.504 129.166 202.38 127.29 202.38 124.976V124.966C202.38 122.652 200.504 120.776 198.19 120.776L136.85 120.776C134.536 120.776 132.66 122.652 132.66 124.966V124.976C132.66 127.29 134.536 129.166 136.85 129.166Z" fill="white" stroke="#807D7D" stroke-width="2" stroke-miterlimit="10"/>
<path d="M234.79 81.1659C233.915 80.0635 232.802 79.1734 231.534 78.5621C230.267 77.9507 228.877 77.6341 227.47 77.6359H92.1998L88.3598 60.0559L68.1798 49.6859C67.7686 49.4414 67.3116 49.2838 66.8371 49.2229C66.3625 49.1619 65.8806 49.1989 65.4209 49.3315C64.9612 49.4641 64.5336 49.6896 64.1645 49.9939C63.7954 50.2983 63.4926 50.6751 63.2748 51.1011C63.057 51.5271 62.9288 51.9932 62.8983 52.4706C62.8677 52.9481 62.9353 53.4267 63.097 53.877C63.2586 54.3273 63.5109 54.7396 63.8382 55.0886C64.1655 55.4376 64.5608 55.7157 64.9998 55.9059L82.2198 64.8159L84.9998 77.6359L101 150.926L105.76 172.676H217.71C218.638 172.676 219.528 172.307 220.185 171.651C220.841 170.994 221.21 170.104 221.21 169.176C221.21 168.248 220.841 167.357 220.185 166.701C219.528 166.045 218.638 165.676 217.71 165.676H111.46L108.23 150.926H215.35C217.372 150.936 219.336 150.254 220.917 148.993C222.497 147.732 223.599 145.969 224.04 143.996L236.59 89.0859C236.906 87.7155 236.909 86.2913 236.597 84.9198C236.285 83.5483 235.667 82.265 234.79 81.1659ZM229.79 87.5259L217.24 142.436C217.144 142.86 216.907 143.239 216.567 143.51C216.227 143.781 215.805 143.927 215.37 143.926H106.7L93.6998 84.6359H227.47C227.824 84.6377 228.174 84.719 228.492 84.8738C228.811 85.0285 229.091 85.2528 229.312 85.5301C229.533 85.8073 229.688 86.1306 229.768 86.476C229.847 86.8214 229.848 87.1802 229.77 87.5259H229.79Z" fill="white" stroke="#807D7D" stroke-width="3" stroke-miterlimit="10"/>
</svg>
