<svg width="31" height="44" viewBox="0 0 31 44" fill="none" xmlns="http://www.w3.org/2000/svg">
<path d="M21.6858 0.545898C20.9493 0.555527 20.3546 1.15024 20.345 1.88675V41.6654C20.345 42.6527 21.1454 43.4532 22.1328 43.4532C23.1202 43.4532 23.9206 42.6527 23.9206 41.6654V27.3629C23.9206 26.8693 24.3208 26.469 24.8145 26.469H27.9431C29.1774 26.469 30.1779 25.4685 30.1779 24.2343C30.0706 11.38 25.8514 0.545898 21.6858 0.545898Z" fill="#EB4436"/>
<path d="M13.1937 0.545898C12.2063 0.545898 11.4059 1.34632 11.4059 2.3337V11.2727C11.4067 12.2082 11.0409 13.1068 10.3868 13.7756C10.2398 13.87 10.0512 13.87 9.90414 13.7756C9.73038 13.7142 9.61524 13.5487 9.61809 13.3644V2.3337C9.61809 1.34632 8.81767 0.545898 7.83029 0.545898C6.84291 0.545898 6.04249 1.34632 6.04249 2.3337V13.4538C6.04534 13.6381 5.9302 13.8036 5.75644 13.865C5.60937 13.9594 5.4208 13.9594 5.27373 13.865C4.5976 13.1742 4.22999 12.239 4.25468 11.2727V2.3337C4.25468 1.34632 3.45426 0.545898 2.46688 0.545898C1.4795 0.545898 0.679077 1.34632 0.679077 2.3337V11.2727C0.680906 14.304 2.59368 17.0048 5.45251 18.0127C5.80645 18.1407 6.04233 18.4766 6.04249 18.853V41.6654C6.04249 42.6527 6.84291 43.4532 7.83029 43.4532C8.81767 43.4532 9.61809 42.6527 9.61809 41.6654V18.853C9.61825 18.4766 9.85413 18.1407 10.2081 18.0127C13.0669 17.0048 14.9797 14.304 14.9815 11.2727V2.3337C14.9815 1.34632 14.1811 0.545898 13.1937 0.545898Z" fill="#EB4436"/>
</svg>
