<svg xmlns="http://www.w3.org/2000/svg" viewBox="0 0 271.56 87.47"><defs><style>.cls-1{fill:#d32f2f;}.cls-2{fill:#fff;}</style></defs><title>kb_pos_logo_large</title><g id="Layer_2" data-name="Layer 2"><g id="Layer_1-2" data-name="Layer 1"><path class="cls-1" d="M61.08,84.26H1.8A1.62,1.62,0,0,1,.2,82.64V65a1.61,1.61,0,0,1,1.6-1.61H46.87a1.6,1.6,0,0,1,1.25.6l12,17.62C61,82.69,62.42,84.26,61.08,84.26Z"/><path class="cls-1" d="M100.54,19.35h24.7c13.47,0,24.7,10.14,24.7,22.91s-11,23.2-24.7,23.2H117.9V84.73H100.54Zm32.65,23c0-4-3.32-7-8-7H117.9V49.44l7.34,0C129.91,49.52,133.19,46.36,133.19,42.34Z"/><path class="cls-2" d="M152.61,52.08a33.61,33.61,0,1,1,33.54,33.5A33.71,33.71,0,0,1,152.61,52.08Zm59.74,0a26.14,26.14,0,1,0-26.2,26.08A26.26,26.26,0,0,0,212.35,52Z"/><path class="cls-1" d="M223.06,73.65l10.5-10.3c2.72,4,7.79,6.45,13.26,6.45,3.69,0,7.3-1.34,7.3-4,0-3.37-6.69-6.33-13.1-9.17-8.27-3.57-15.37-9-15.37-18.86,0-11.31,10.75-19.39,23.16-19.39,10,0,17.77,4.71,20.32,11.16l-10,9.65c-1.94-3.45-7-5-10.1-5-3.57,0-6.12,1.83-6.12,4.06,0,3,4.62,4,11.68,6.93,10.22,4.3,17,10.55,17,20.2,0,12.45-11.6,20.2-24.7,20.2C236.12,85.62,226.34,80.87,223.06,73.65Z"/><path class="cls-1" d="M65.06,21.14h.06l2,.17A23.28,23.28,0,0,1,75,23.27,13.17,13.17,0,0,1,83,34.2a16,16,0,0,1-.56,7.24,12.62,12.62,0,0,1-5.6,7.05l0,0,0,0-.22.14-.19.12-2.77,1.78,2.86,1.64,1,.56c.7.38,1.36.74,2,1.15a12.87,12.87,0,0,1,6,10.14,16.5,16.5,0,0,1-2.29,10.6,15.19,15.19,0,0,1-8.14,6.2,26.72,26.72,0,0,1-8.56,1.45l-7.15-10h4.33a9,9,0,0,0,9.24-7.84,11.33,11.33,0,0,0-.4-5.9,9,9,0,0,0-8-6.08,18.16,18.16,0,0,0-1.92-.07H50v4.22q-6.24-8.43-12.45-16.86,0-9.35,0-18.67H65.06M58.52,46l4.61,0A14.4,14.4,0,0,0,66,45.63a6.14,6.14,0,0,0,5.09-4.82,10.39,10.39,0,0,0,0-4.12A6.2,6.2,0,0,0,67,31.85a12.83,12.83,0,0,0-4.5-.72H50V45.82l1.87.13H52l.44,0h6.13m6.62-26.84H35.55a1.1,1.1,0,0,0,0,.18q0,10.41,0,20.82a1.2,1.2,0,0,0,.25.66q6.83,9.27,13.69,18.55a1.4,1.4,0,0,0,1.14.65,1.28,1.28,0,0,0,.46-.08,1.36,1.36,0,0,0,.9-1.4c0-1.09,0-2.18,0-3.26v-.81H62.62a16.86,16.86,0,0,1,1.74.06,7,7,0,0,1,6.28,4.77A9.54,9.54,0,0,1,71,64.18a7,7,0,0,1-7.27,6.17H55.45L65,83.71l.49.61h1a29,29,0,0,0,9.23-1.57,17.19,17.19,0,0,0,9.16-7,18.54,18.54,0,0,0,2.59-11.84,14.91,14.91,0,0,0-6.93-11.63c-1-.65-2-1.18-3.08-1.78l.44-.28a14.68,14.68,0,0,0,6.45-8.13A18.16,18.16,0,0,0,85,33.94a15.17,15.17,0,0,0-9.17-12.49,25.58,25.58,0,0,0-8.56-2.12l-2.13-.19ZM58.52,44H52.39L52,44V33.13H62.53a10.66,10.66,0,0,1,3.79.59,4.18,4.18,0,0,1,2.81,3.34,8.25,8.25,0,0,1,0,3.32,4.12,4.12,0,0,1-3.54,3.29A12.61,12.61,0,0,1,63.1,44l-4.58,0Z"/><path class="cls-1" d="M.46,56.05c-.09.1-.3.09-.46.13V.51C.67-.16,1.51,0,2.31,0c2.76,0,5.52,0,8.28,0,1,0,1.26.15,1.26,1.33q0,10,0,20v6.17c1.23-1.5,2.39-2.89,3.53-4.3,1.31-1.61,2.6-3.23,3.91-4.85C21,16.13,22.78,14,24.54,11.78,26.09,9.88,27.67,8,29.22,6.1s2.91-3.67,4.4-5.47a1.6,1.6,0,0,1,1-.58c3.87,0,10.59,0,14.69,0-8.42,10.4-16.74,20.69-25.11,31L47,60.24H36.72a6.54,6.54,0,0,1-2.95-.67,3.39,3.39,0,0,1-1.12-.85c-1.62-2.1-3.3-4.16-5-6.25-1.78-2.25-3.54-4.52-5.33-6.76-1.61-2-3.24-4-4.87-6l-1.18-1.49Z"/><path class="cls-1" d="M0,.51V56.18c.16,0,.37,0,.46-.13L16.31,38.18l1.18,1.49c1.63,2,3.26,4,4.87,6,1.79,2.24,3.55,4.51,5.33,6.76,1.66,2.09,3.34,4.15,5,6.25a3.39,3.39,0,0,0,1.12.85,6.54,6.54,0,0,0,2.95.67H47L24.24,31C32.61,20.71,40.93,10.42,49.35,0c-4.1,0-10.82,0-14.69,0a1.6,1.6,0,0,0-1,.58c-1.49,1.8-2.93,3.65-4.4,5.47s-3.13,3.78-4.68,5.68C22.78,14,21,16.13,19.29,18.31c-1.31,1.62-2.6,3.24-3.91,4.85-1.14,1.41-2.3,2.8-3.53,4.3V21.29q0-10,0-20C11.85.15,11.58,0,10.59,0,8.71,0,6.83,0,5,0H1.47A1.88,1.88,0,0,0,0,.51"/><path class="cls-1" d="M187,19.07a34.2,34.2,0,0,0-9.54,67V62.64a7.35,7.35,0,0,1-6.25-7.22V42.19a1,1,0,0,1,2,0V55.42a5.27,5.27,0,0,0,4.27,5.22V42.18a1,1,0,0,1,2,0V60.64a5.27,5.27,0,0,0,4.28-5.22V42.18a1,1,0,0,1,2,0V55.42a7.35,7.35,0,0,1-6.25,7.22v24A34.34,34.34,0,0,0,196.9,86V62.41a7.18,7.18,0,0,1-4.48-3.21,14.36,14.36,0,0,1,0-14.92,6.18,6.18,0,0,1,10.93,0,14.36,14.36,0,0,1,0,14.92,7.16,7.16,0,0,1-4.47,3.21v23A34.2,34.2,0,0,0,187,19.07Z"/><path class="cls-1" d="M203.46,51.74c0-4.76-2.55-8.78-5.58-8.78s-5.58,4-5.58,8.78,2.56,8.79,5.58,8.79S203.46,56.5,203.46,51.74Z"/></g></g></svg>