<svg width="39" height="44" viewBox="0 0 39 44" fill="none" xmlns="http://www.w3.org/2000/svg">
<path d="M34.6225 8.38691H34.627H35.2591V6.69079C35.2591 3.26236 32.4684 0.47168 29.04 0.47168H10.948C7.51961 0.47168 4.72892 3.26236 4.72892 6.69079V8.38691H34.6225ZM29.8304 19.6944C30.043 18.1882 30.3991 16.7058 30.9374 15.2698L32.6708 10.6484H4.24609L2.41428 14.3109C1.56509 16.0093 0.95901 17.8286 0.597171 19.6944H29.8304ZM37.3193 15.2698L35.9387 11.5903L34.1125 16.4604C33.373 18.4347 32.9976 20.5051 32.9976 22.6151V40.6132C32.9976 41.6659 32.733 42.6565 32.2694 43.526L32.37 43.5271C32.3927 43.5271 32.413 43.5271 32.4356 43.5271C34.0842 43.5271 35.6345 42.8905 36.8071 41.7281C37.9966 40.551 38.6513 38.9827 38.6513 37.3092V22.6151C38.6513 20.0969 38.2036 17.6262 37.3193 15.2698ZM26.7785 43.4401C28.3378 43.4401 29.6054 42.1725 29.6054 40.6132V22.6151C29.6054 22.3946 29.628 22.1764 29.6348 21.9559H0.285085C0.238724 22.5246 0.205933 23.0957 0.205933 23.6667V37.221C0.205933 40.6494 2.99662 43.4401 6.42504 43.4401H23.3693L26.4788 43.4706C26.5772 43.4525 26.6756 43.4401 26.7785 43.4401Z" fill="#FFD53E"/>
</svg>
